<svg width="24" height="24" viewBox="0 0 24 24" fill="none" xmlns="http://www.w3.org/2000/svg">
<path d="M8.70709 3.29309C8.31709 3.68309 8.33809 4.31409 8.56909 4.81609C8.81039 5.34134 8.88506 5.92788 8.78306 6.49683C8.68107 7.06578 8.4073 7.58986 7.99858 7.99858C7.58986 8.4073 7.06578 8.68107 6.49683 8.78306C5.92788 8.88506 5.34134 8.81039 4.81609 8.56909C4.31409 8.33909 3.68309 8.31709 3.29309 8.70709L2.70709 9.29309C2.51962 9.48062 2.41431 9.73493 2.41431 10.0001C2.41431 10.2653 2.51962 10.5196 2.70709 10.7071L13.2931 21.2931C13.4806 21.4806 13.7349 21.5859 14.0001 21.5859C14.2653 21.5859 14.5196 21.4806 14.7071 21.2931L15.2931 20.7071C15.6831 20.3171 15.6621 19.6861 15.4311 19.1841C15.1898 18.6588 15.1151 18.0723 15.2171 17.5034C15.3191 16.9344 15.5929 16.4103 16.0016 16.0016C16.4103 15.5929 16.9344 15.3191 17.5034 15.2171C18.0723 15.1151 18.6588 15.1898 19.1841 15.4311C19.6861 15.6611 20.3171 15.6831 20.7071 15.2931L21.2931 14.7071C21.4806 14.5196 21.5859 14.2653 21.5859 14.0001C21.5859 13.7349 21.4806 13.4806 21.2931 13.2931L10.7071 2.70709C10.5196 2.51962 10.2653 2.41431 10.0001 2.41431C9.73493 2.41431 9.48062 2.51962 9.29309 2.70709L8.70709 3.29309V3.29309Z" stroke="#FF5869" stroke-width="2" stroke-linecap="round" stroke-linejoin="round"/>
</svg>
