<svg width="24" height="25" viewBox="0 0 24 25" fill="none" xmlns="http://www.w3.org/2000/svg">
<path d="M20.1212 18.3969C19.679 17.3496 19.0374 16.3984 18.2321 15.5961C17.4292 14.7915 16.4781 14.15 15.4313 13.707C15.4219 13.7023 15.4126 13.7 15.4032 13.6953C16.8633 12.6406 17.8126 10.9227 17.8126 8.98438C17.8126 5.77344 15.211 3.17188 12.0001 3.17188C8.78912 3.17188 6.18756 5.77344 6.18756 8.98438C6.18756 10.9227 7.13678 12.6406 8.59693 13.6977C8.58756 13.7023 8.57818 13.7047 8.56881 13.7094C7.51881 14.1523 6.57662 14.7875 5.76803 15.5984C4.96344 16.4013 4.32194 17.3524 3.87896 18.3992C3.44378 19.424 3.20908 20.5228 3.18756 21.6359C3.18693 21.661 3.19132 21.6858 3.20046 21.7091C3.20961 21.7324 3.22332 21.7537 3.24079 21.7716C3.25826 21.7895 3.27915 21.8037 3.30221 21.8134C3.32527 21.8231 3.35004 21.8281 3.37506 21.8281H4.78131C4.88443 21.8281 4.96646 21.7461 4.96881 21.6453C5.01568 19.8359 5.74225 18.1414 7.02662 16.857C8.35553 15.5281 10.1204 14.7969 12.0001 14.7969C13.8797 14.7969 15.6446 15.5281 16.9735 16.857C18.2579 18.1414 18.9844 19.8359 19.0313 21.6453C19.0337 21.7484 19.1157 21.8281 19.2188 21.8281H20.6251C20.6501 21.8281 20.6749 21.8231 20.6979 21.8134C20.721 21.8037 20.7419 21.7895 20.7593 21.7716C20.7768 21.7537 20.7905 21.7324 20.7997 21.7091C20.8088 21.6858 20.8132 21.661 20.8126 21.6359C20.7891 20.5156 20.5571 19.4258 20.1212 18.3969ZM12.0001 13.0156C10.9243 13.0156 9.91178 12.5961 9.15006 11.8344C8.38834 11.0727 7.96881 10.0602 7.96881 8.98438C7.96881 7.90859 8.38834 6.89609 9.15006 6.13437C9.91178 5.37266 10.9243 4.95312 12.0001 4.95312C13.0758 4.95312 14.0883 5.37266 14.8501 6.13437C15.6118 6.89609 16.0313 7.90859 16.0313 8.98438C16.0313 10.0602 15.6118 11.0727 14.8501 11.8344C14.0883 12.5961 13.0758 13.0156 12.0001 13.0156Z" fill="#FF5869"/>
</svg>
