<svg width="32" height="33" viewBox="0 0 32 33" fill="none" xmlns="http://www.w3.org/2000/svg">
<path d="M16 8.18945C14.6094 8.19122 13.2762 8.74442 12.2929 9.72772C11.3096 10.711 10.7564 12.0442 10.7546 13.4348H13.4213C13.4213 12.0121 14.5786 10.8561 16 10.8561C17.4213 10.8561 18.5786 12.0121 18.5786 13.4348C18.5786 14.2321 17.9373 14.8108 16.9573 15.6028C16.6372 15.8536 16.3297 16.1201 16.036 16.4015C14.7053 17.7308 14.6666 19.1428 14.6666 19.3001V20.1895H17.3333L17.332 19.3455C17.3333 19.3241 17.376 18.8308 17.92 18.2881C18.12 18.0881 18.372 17.8881 18.6333 17.6775C19.672 16.8361 21.244 15.5655 21.244 13.4348C21.2429 12.0442 20.6901 10.7108 19.707 9.72742C18.7238 8.74399 17.3906 8.19087 16 8.18945ZM14.6666 21.5228H17.3333V24.1895H14.6666V21.5228Z" fill="black"/>
<path d="M16.0001 2.8562C8.64808 2.8562 2.66675 8.83753 2.66675 16.1895C2.66675 23.5415 8.64808 29.5229 16.0001 29.5229C23.3521 29.5229 29.3334 23.5415 29.3334 16.1895C29.3334 8.83753 23.3521 2.8562 16.0001 2.8562ZM16.0001 26.8562C10.1187 26.8562 5.33341 22.0709 5.33341 16.1895C5.33341 10.3082 10.1187 5.52287 16.0001 5.52287C21.8814 5.52287 26.6667 10.3082 26.6667 16.1895C26.6667 22.0709 21.8814 26.8562 16.0001 26.8562Z" fill="black"/>
</svg>
