<svg width="24" height="25" viewBox="0 0 24 25" fill="none" xmlns="http://www.w3.org/2000/svg">
<path d="M10.0001 16.5776H14.0001C14.255 16.5779 14.5001 16.6755 14.6855 16.8505C14.8708 17.0255 14.9823 17.2646 14.9973 17.519C15.0122 17.7735 14.9294 18.024 14.7658 18.2195C14.6023 18.4149 14.3702 18.5405 14.1171 18.5706L14.0001 18.5776H10.0001C9.74523 18.5774 9.50008 18.4798 9.31474 18.3048C9.12941 18.1298 9.01788 17.8907 9.00294 17.6362C8.988 17.3818 9.07079 17.1313 9.23438 16.9358C9.39797 16.7404 9.63002 16.6147 9.88311 16.5846L10.0001 16.5776H14.0001H10.0001ZM8.00011 11.5776H16.0001C16.255 11.5779 16.5001 11.6755 16.6855 11.8505C16.8708 12.0255 16.9823 12.2646 16.9973 12.519C17.0122 12.7735 16.9294 13.024 16.7658 13.2195C16.6023 13.4149 16.3702 13.5405 16.1171 13.5706L16.0001 13.5776H8.00011C7.74523 13.5774 7.50008 13.4798 7.31474 13.3048C7.12941 13.1298 7.01788 12.8907 7.00294 12.6362C6.988 12.3818 7.07079 12.1313 7.23438 11.9358C7.39797 11.7404 7.63002 11.6147 7.88311 11.5846L8.00011 11.5776H16.0001H8.00011ZM5.00011 6.57764H19.0001C19.255 6.57792 19.5001 6.67552 19.6855 6.85048C19.8708 7.02545 19.9823 7.26459 19.9973 7.51903C20.0122 7.77347 19.9294 8.02402 19.7658 8.21947C19.6023 8.41492 19.3702 8.54053 19.1171 8.57064L19.0001 8.57764H5.00011C4.74523 8.57735 4.50008 8.47976 4.31474 8.30479C4.12941 8.12982 4.01788 7.89068 4.00294 7.63624C3.988 7.3818 4.07079 7.13126 4.23438 6.9358C4.39797 6.74035 4.63002 6.61474 4.88311 6.58464L5.00011 6.57764H19.0001H5.00011Z" fill="white"/>
</svg>
