<svg width="17" height="17" viewBox="0 0 17 17" fill="none" xmlns="http://www.w3.org/2000/svg">
<path d="M6.20961 13.8276H6.15711C5.09947 13.8184 4.05713 13.574 3.10555 13.1123C2.93051 13.0301 2.78639 12.894 2.69428 12.724C2.60217 12.5539 2.56691 12.3589 2.59367 12.1673C2.62277 11.9745 2.71205 11.7958 2.84876 11.6567C2.98547 11.5177 3.16262 11.4253 3.35492 11.3929C3.94464 11.3143 4.51195 11.1155 5.0218 10.8089C4.13662 10.1168 3.45517 9.19817 3.04965 8.15029C2.64413 7.10241 2.52966 5.96435 2.71836 4.8567C2.74395 4.68125 2.8194 4.51685 2.93574 4.38306C3.05208 4.24926 3.20442 4.15171 3.37461 4.10201C3.54019 4.05001 3.7174 4.04779 3.88423 4.09562C4.05107 4.14345 4.20018 4.23923 4.31305 4.37107C4.6963 4.87362 5.17792 5.29282 5.72852 5.60309C6.27912 5.91337 6.88716 6.10822 7.51555 6.17576C7.54556 5.4026 7.87782 4.67211 8.44086 4.14139C8.722 3.87217 9.05391 3.66161 9.41724 3.52196C9.78057 3.3823 10.1681 3.31636 10.5571 3.32796C10.9462 3.33957 11.3291 3.42849 11.6835 3.58955C12.0378 3.75061 12.3566 3.98058 12.6212 4.26607C12.6901 4.32702 12.7758 4.36586 12.867 4.37756C12.9583 4.38926 13.051 4.37328 13.133 4.3317C13.2895 4.2579 13.4637 4.23012 13.6354 4.2516C13.8071 4.27308 13.9691 4.34293 14.1026 4.453C14.236 4.56308 14.3354 4.70884 14.3892 4.87327C14.4429 5.03771 14.4488 5.21404 14.4062 5.3817C14.2548 6.00521 13.968 6.58775 13.5662 7.08795C13.4776 8.95481 12.6546 10.711 11.2765 11.9735C9.8984 13.236 8.07708 13.9025 6.20961 13.8276ZM6.20961 12.5151H6.26211C7.02511 12.5414 7.78573 12.4159 8.49988 12.146C9.21402 11.8761 9.86748 11.4671 10.4224 10.9427C10.9773 10.4183 11.4225 9.78902 11.7324 9.09127C12.0422 8.39353 12.2105 7.64121 12.2274 6.87795C12.2383 6.66877 12.3245 6.4706 12.4702 6.32014C12.6303 6.11752 12.7668 5.89735 12.8771 5.66389C12.6407 5.66434 12.4068 5.61488 12.1909 5.51876C11.9749 5.42264 11.7816 5.28201 11.6237 5.10607C11.4718 4.9555 11.2914 4.83673 11.0931 4.75673C10.8948 4.67672 10.6825 4.63708 10.4687 4.64014C10.2527 4.63455 10.0378 4.67168 9.83617 4.74938C9.63458 4.82709 9.45033 4.94384 9.29399 5.09295C9.08305 5.2931 8.92839 5.54515 8.84547 5.82386C8.76255 6.10257 8.75428 6.39816 8.82149 6.68107L8.99211 7.4292L8.2243 7.4817C7.43752 7.54585 6.64619 7.43823 5.90512 7.16628C5.16405 6.89433 4.49095 6.46455 3.93242 5.9067C3.90847 6.77058 4.12457 7.62419 4.55671 8.3726C4.98885 9.12102 5.62008 9.73493 6.38024 10.1461L7.00367 10.5004L6.59024 11.0911C6.14313 11.6774 5.53051 12.1163 4.83149 12.3511C5.27991 12.4635 5.74077 12.5186 6.20305 12.5151H6.20961Z" fill="black"/>
</svg>
