<svg width="25" height="25" viewBox="0 0 25 25" fill="none" xmlns="http://www.w3.org/2000/svg">
<path d="M19.0131 20.1895C10.4821 20.2015 4.00712 13.6495 4.01612 5.19245C4.01612 4.63945 4.46412 4.18945 5.01612 4.18945H7.65612C8.15112 4.18945 8.57212 4.55345 8.64512 5.04345C8.81923 6.21851 9.16104 7.3625 9.66012 8.44045L9.76312 8.66245C9.83231 8.81184 9.84719 8.9807 9.80521 9.13989C9.76322 9.29908 9.66699 9.43862 9.53312 9.53445C8.71512 10.1185 8.40312 11.2935 9.04012 12.2095C9.84211 13.3628 10.8431 14.3641 11.9961 15.1665C12.9131 15.8025 14.0881 15.4905 14.6711 14.6735C14.7669 14.5392 14.9065 14.4426 15.0659 14.4004C15.2254 14.3582 15.3945 14.3731 15.5441 14.4425L15.7651 14.5445C16.8431 15.0445 17.9871 15.3865 19.1621 15.5605C19.6521 15.6335 20.0161 16.0545 20.0161 16.5505V19.1895C20.0161 19.3209 19.9902 19.451 19.9399 19.5724C19.8896 19.6938 19.8158 19.804 19.7229 19.8969C19.6299 19.9898 19.5196 20.0634 19.3981 20.1136C19.2767 20.1638 19.1465 20.1896 19.0151 20.1895H19.0131Z" fill="#FF5869"/>
</svg>
