<svg width="17" height="17" viewBox="0 0 17 17" fill="none" xmlns="http://www.w3.org/2000/svg">
<g clip-path="url(#clip0_100_14)">
<path fill-rule="evenodd" clip-rule="evenodd" d="M12.0536 10.1409C11.858 10.0431 10.8993 9.57188 10.7207 9.50626C10.5422 9.44129 10.4123 9.40913 10.2817 9.60469C10.1518 9.79894 9.77837 10.2386 9.66484 10.3686C9.55066 10.4992 9.43712 10.5149 9.24222 10.4178C9.04731 10.3194 8.41862 10.1139 7.67378 9.44982C7.09431 8.9327 6.70253 8.29416 6.589 8.0986C6.47547 7.9037 6.57653 7.79804 6.67431 7.70091C6.76225 7.61363 6.86922 7.4732 6.967 7.35966C7.06478 7.24548 7.09694 7.1641 7.16191 7.03351C7.22753 6.90357 7.19472 6.79004 7.1455 6.69226C7.09694 6.59448 6.70713 5.63438 6.54438 5.24391C6.38622 4.86395 6.22544 4.91579 6.106 4.90923C5.99181 4.90398 5.86188 4.90266 5.73194 4.90266C5.602 4.90266 5.39069 4.95123 5.21219 5.14679C5.03303 5.34169 4.52969 5.81354 4.52969 6.77363C4.52969 7.73307 5.22794 8.66035 5.32572 8.79095C5.4235 8.92088 6.70056 10.8909 8.65684 11.7355C9.12278 11.9364 9.48569 12.0564 9.76853 12.1457C10.2358 12.2947 10.661 12.2737 10.997 12.2231C11.3711 12.1674 12.1507 11.7513 12.3135 11.2959C12.4756 10.8404 12.4756 10.4499 12.427 10.3686C12.3784 10.2872 12.2485 10.2386 12.0529 10.1409H12.0536ZM8.49541 14.9991H8.49278C7.33084 14.9993 6.19024 14.6869 5.19053 14.0948L4.95428 13.9543L2.49859 14.5988L3.15419 12.2048L2.99997 11.9593C2.35037 10.9253 2.0066 9.72858 2.00838 8.50744C2.00969 4.93088 4.9195 2.02107 8.49803 2.02107C10.2305 2.02107 11.8593 2.69701 13.0839 3.92288C13.6879 4.52439 14.1666 5.23969 14.4924 6.02741C14.8182 6.81513 14.9845 7.65962 14.9818 8.51204C14.9805 12.0886 12.0707 14.9991 8.49541 14.9991ZM14.0158 2.99166C13.2927 2.26383 12.4324 1.68673 11.4847 1.29381C10.537 0.900893 9.52069 0.699962 8.49475 0.702664C4.19369 0.702664 0.691937 4.20376 0.690625 8.50679C0.688632 9.87622 1.04787 11.2219 1.73209 12.4082L0.625 16.4527L4.762 15.3672C5.90642 15.9907 7.18887 16.3174 8.49213 16.3175H8.49541C12.7965 16.3175 16.2982 12.8164 16.2995 8.51269C16.3027 7.48716 16.1025 6.47117 15.7105 5.5235C15.3185 4.57583 14.7425 3.71529 14.0158 2.99166Z" fill="black"/>
</g>
<defs>
<clipPath id="clip0_100_14">
<rect width="15.75" height="15.75" fill="white" transform="translate(0.625 0.702637)"/>
</clipPath>
</defs>
</svg>
