<svg width="25" height="25" viewBox="0 0 25 25" fill="none" xmlns="http://www.w3.org/2000/svg">
<g clip-path="url(#clip0_26_635)">
<path d="M21.3494 4.18945H2.6827C2.32908 4.18945 1.98994 4.32993 1.73989 4.57998C1.48984 4.83003 1.34937 5.16916 1.34937 5.52279V18.8561C1.34937 19.2097 1.48984 19.5489 1.73989 19.7989C1.98994 20.049 2.32908 20.1895 2.6827 20.1895H21.3494C21.703 20.1895 22.0421 20.049 22.2922 19.7989C22.5422 19.5489 22.6827 19.2097 22.6827 18.8561V5.52279C22.6827 5.16916 22.5422 4.83003 22.2922 4.57998C22.0421 4.32993 21.703 4.18945 21.3494 4.18945ZM20.3227 18.8561H3.78937L8.45603 14.0295L7.49603 13.1028L2.6827 18.0828V6.53612L10.9694 14.7828C11.2192 15.0311 11.5571 15.1705 11.9094 15.1705C12.2616 15.1705 12.5995 15.0311 12.8494 14.7828L21.3494 6.32945V17.9961L16.4427 13.0895L15.5027 14.0295L20.3227 18.8561ZM3.55603 5.52279H20.2694L11.9094 13.8361L3.55603 5.52279Z" fill="#FF5869"/>
</g>
<defs>
<clipPath id="clip0_26_635">
<rect width="24" height="24" fill="white" transform="translate(0.0161133 0.189453)"/>
</clipPath>
</defs>
</svg>
