<svg width="17" height="17" viewBox="0 0 17 17" fill="none" xmlns="http://www.w3.org/2000/svg">
<path d="M8.97256 2.03488C8.03377 1.96654 7.09127 2.10114 6.20913 2.42952C5.32699 2.75791 4.52591 3.27238 3.86032 3.93796C3.19474 4.60354 2.68027 5.40463 2.35189 6.28677C2.0235 7.1689 1.88891 8.1114 1.95724 9.05019C2.1935 12.5218 5.22537 15.1402 8.7035 15.1402H11.1251C11.486 15.1402 11.7813 14.8449 11.7813 14.4839C11.7813 14.123 11.486 13.8277 11.1251 13.8277H8.71662C6.26881 13.8277 4.02443 12.2396 3.41412 9.87051C2.43631 6.06426 5.98006 2.51394 9.78631 3.49832C12.1619 4.10207 13.7501 6.34644 13.7501 8.79426V9.51613C13.7501 10.0346 13.2841 10.5464 12.7657 10.5464C12.2472 10.5464 11.7813 10.0346 11.7813 9.51613V8.69582C11.7813 7.04863 10.6132 5.56551 8.98568 5.33582C8.46787 5.25882 7.93916 5.30664 7.44357 5.47528C6.94797 5.64393 6.49984 5.92852 6.13647 6.30538C5.7731 6.68223 5.50501 7.14043 5.35452 7.64184C5.20404 8.14324 5.17551 8.67335 5.27131 9.18801C5.38641 9.80815 5.67794 10.3819 6.11094 10.8405C6.54395 11.2992 7.10005 11.6231 7.71256 11.7736C8.92006 12.0558 10.0685 11.6686 10.8232 10.9008C11.4072 11.7014 12.5754 12.1214 13.6451 11.6949C14.5244 11.3471 15.0626 10.448 15.0626 9.50301V8.78769C15.0626 5.30301 12.4441 2.27113 8.97256 2.03488ZM8.50006 10.5464C7.41068 10.5464 6.53131 9.66707 6.53131 8.57769C6.53131 7.48832 7.41068 6.60894 8.50006 6.60894C9.58943 6.60894 10.4688 7.48832 10.4688 8.57769C10.4688 9.66707 9.58943 10.5464 8.50006 10.5464Z" fill="black"/>
</svg>
