<svg width="25" height="25" viewBox="0 0 25 25" fill="none" xmlns="http://www.w3.org/2000/svg">
<path d="M12.0161 13.1895C13.673 13.1895 15.0161 11.8463 15.0161 10.1895C15.0161 8.5326 13.673 7.18945 12.0161 7.18945C10.3593 7.18945 9.01611 8.5326 9.01611 10.1895C9.01611 11.8463 10.3593 13.1895 12.0161 13.1895Z" stroke="#FF5869" stroke-width="2" stroke-linecap="round" stroke-linejoin="round"/>
<path d="M12.0161 2.18945C9.89438 2.18945 7.85955 3.03231 6.35926 4.5326C4.85897 6.03289 4.01611 8.06772 4.01611 10.1895C4.01611 12.0815 4.41811 13.3195 5.51611 14.6895L12.0161 22.1895L18.5161 14.6895C19.6141 13.3195 20.0161 12.0815 20.0161 10.1895C20.0161 8.06772 19.1733 6.03289 17.673 4.5326C16.1727 3.03231 14.1378 2.18945 12.0161 2.18945V2.18945Z" stroke="#FF5869" stroke-width="2" stroke-linecap="round" stroke-linejoin="round"/>
</svg>
