<svg width="24" height="25" viewBox="0 0 24 25" fill="none" xmlns="http://www.w3.org/2000/svg">
<path d="M12 2.44995C6.48 2.44995 2 6.92995 2 12.45C2 17.97 6.48 22.45 12 22.45H17V20.45H12C7.66 20.45 4 16.79 4 12.45C4 8.10995 7.66 4.44995 12 4.44995C16.34 4.44995 20 8.10995 20 12.45V13.88C20 14.67 19.29 15.45 18.5 15.45C17.71 15.45 17 14.67 17 13.88V12.45C17 9.68995 14.76 7.44995 12 7.44995C9.24 7.44995 7 9.68995 7 12.45C7 15.21 9.24 17.45 12 17.45C13.38 17.45 14.64 16.89 15.54 15.98C16.19 16.87 17.31 17.45 18.5 17.45C20.47 17.45 22 15.85 22 13.88V12.45C22 6.92995 17.52 2.44995 12 2.44995ZM12 15.45C10.34 15.45 9 14.11 9 12.45C9 10.79 10.34 9.44995 12 9.44995C13.66 9.44995 15 10.79 15 12.45C15 14.11 13.66 15.45 12 15.45Z" fill="#FF5869"/>
</svg>
