<svg width="512" height="847" viewBox="0 0 512 847" fill="none" xmlns="http://www.w3.org/2000/svg">
<mask id="path-1-inside-1_26_456" fill="white">
<path fill-rule="evenodd" clip-rule="evenodd" d="M0.166504 0.47998H511.833L511.833 259.649C502.54 259.649 495.006 267.183 495.006 276.476C495.006 285.769 502.54 293.303 511.833 293.303L511.833 846.19H0.166504L0.166546 293.303C9.45974 293.303 16.9934 285.769 16.9934 276.476C16.9934 267.183 9.45974 259.649 0.166546 259.649L0.166504 0.47998Z"/>
</mask>
<path fill-rule="evenodd" clip-rule="evenodd" d="M0.166504 0.47998H511.833L511.833 259.649C502.54 259.649 495.006 267.183 495.006 276.476C495.006 285.769 502.54 293.303 511.833 293.303L511.833 846.19H0.166504L0.166546 293.303C9.45974 293.303 16.9934 285.769 16.9934 276.476C16.9934 267.183 9.45974 259.649 0.166546 259.649L0.166504 0.47998Z" fill="white"/>
<path d="M511.833 0.47998L513.833 0.479981L513.833 -1.52002H511.833V0.47998ZM0.166504 0.47998V-1.52002H-1.8335L-1.8335 0.479981L0.166504 0.47998ZM511.833 259.649V261.649H513.833L513.833 259.649H511.833ZM511.833 293.303H513.833L513.833 291.303H511.833V293.303ZM511.833 846.19V848.19H513.833L513.833 846.19H511.833ZM0.166504 846.19H-1.8335L-1.8335 848.19H0.166504V846.19ZM0.166546 293.303V291.303H-1.83345L-1.83345 293.303H0.166546ZM0.166546 259.649H-1.83345L-1.83345 261.649H0.166546V259.649ZM511.833 -1.52002H0.166504V2.47998H511.833V-1.52002ZM513.833 259.649V0.479981L509.833 0.47998L509.833 259.649H513.833ZM497.006 276.476C497.006 268.287 503.645 261.649 511.833 261.649V257.649C501.435 257.649 493.006 266.078 493.006 276.476H497.006ZM511.833 291.303C503.645 291.303 497.006 284.665 497.006 276.476H493.006C493.006 286.874 501.435 295.303 511.833 295.303V291.303ZM513.833 846.19V293.303H509.833L509.833 846.19H513.833ZM0.166504 848.19H511.833V844.19H0.166504V848.19ZM-1.83345 293.303L-1.8335 846.19H2.1665L2.16655 293.303H-1.83345ZM14.9934 276.476C14.9934 284.665 8.35517 291.303 0.166546 291.303V295.303C10.5643 295.303 18.9934 286.874 18.9934 276.476H14.9934ZM0.166546 261.649C8.35518 261.649 14.9934 268.287 14.9934 276.476H18.9934C18.9934 266.078 10.5643 257.649 0.166546 257.649V261.649ZM-1.8335 0.479981L-1.83345 259.649H2.16655L2.1665 0.47998L-1.8335 0.479981Z" fill="#FF5869" mask="url(#path-1-inside-1_26_456)"/>
</svg>
